# xmcd CD database file
#
# Track frame offsets:
#	150
#	13123
#	27413
#	40576
#	53081
#	66706
#	79896
#	92533
#	105676
#	119426
#	132266
#	143721
#	155478
#	168526
#	181488
#	193676
#	207388
#	220586
#	234758
#	248496
#	262128
#	275568
#	290241
#	302826
#	315943
#	330335
#	344516
#
# Disc length: 4773 seconds
#
# Revision: 0
# Processed by: cddbd v1.5.2PL0 Copyright (c) Steve Scherf et al.
# Submitted via: CDex 1.70beta2
#
DISCID=9012a31b
DTITLE=Clarence Williams - Clarence Williams' QRS Recordingsv
DYEAR=1929
DGENRE=Jazz
TTITLE0=Do it Baby (Katherine Henderson)
TTITLE1=Mushy Love (Katherine Henderson)
TTITLE2=If You Like Me (Katherine Henderson)
TTITLE3=If You Like Me-A (Katherine Henderson)
TTITLE4=Hole In The Wall (Sara Martin)
TTITLE5=Hole In The Wall-A (Sara Martin)
TTITLE6=Don't You Turn Your Back On Me (Sara Martin)
TTITLE7=Death Sting Me Blues (Sara Martin)
TTITLE8=Mean Tight Mama (Sara Martin)
TTITLE9=Mistreating Man Blues (Sara Martin)
TTITLE10=Kitchen Man Blues (Sara Martin)
TTITLE11=Beau-Koo-Jack
TTITLE12=Sister Kate
TTITLE13=Pane In The Glass
TTITLE14=Pane In The Glass-A
TTITLE15=Dentist Chair Blues Part 1 (Laura Bryant)
TTITLE16=Dentist Chair Blues Part 2 (Laura Bryant)
TTITLE17=Saturday Night Jag (Laura Bryant)
TTITLE18=Saturday Night Jag-A (Laura Bryant)
TTITLE19=Hot Lovin' - Barrel House Five
TTITLE20=Hot Lovin'-A - Barrel House Five
TTITLE21=Mama Stayed Out - Barrel House Five
TTITLE22=Nobody's Business - Barrel House Five
TTITLE23=Endurance Stomp - Barrel House Five
TTITLE24=Endurance Stomp-A - Barrel House Five
TTITLE25=Some Do And Some Don't - Barrel House Five
TTITLE26=Scufflin' Blues - Barrel House Five
EXTD=YEAR: 1929
EXTT0=
EXTT1=
EXTT2=
EXTT3=
EXTT4=
EXTT5=
EXTT6=
EXTT7=
EXTT8=
EXTT9=
EXTT10=
EXTT11=
EXTT12=
EXTT13=
EXTT14=
EXTT15=
EXTT16=
EXTT17=
EXTT18=
EXTT19=
EXTT20=
EXTT21=
EXTT22=
EXTT23=
EXTT24=
EXTT25=
EXTT26=
PLAYORDER=
